<svg xmlns="http://www.w3.org/2000/svg" version="1.1" xmlns:xlink="http://www.w3.org/1999/xlink" xmlns:svgjs="http://svgjs.dev/svgjs" width="1000" height="1000" viewBox="0 0 1000 1000"><rect width="1000" height="1000" fill="#ee3e38"></rect><g transform="matrix(0.7,0,0,0.7,149.84897959183672,150.19913061224486)"><svg viewBox="0 0 343 343" data-background-color="#ee3e38" preserveAspectRatio="xMidYMid meet" height="999" width="1000" xmlns="http://www.w3.org/2000/svg" xmlns:xlink="http://www.w3.org/1999/xlink"><g id="tight-bounds" transform="matrix(1,0,0,1,0.07400000000001228,0.07400000000001228)"><svg viewBox="0 0 342.8515585177538 342.8515585177538" height="342.8515585177538" width="342.8515585177538"><g><svg></svg></g><g><svg viewBox="0 0 342.8515585177538 342.8515585177538" height="342.8515585177538" width="342.8515585177538"><g><path d="M0 171.426c0-94.676 76.75-171.426 171.426-171.426 94.676 0 171.426 76.75 171.426 171.426 0 94.676-76.75 171.426-171.426 171.426-94.676 0-171.426-76.75-171.426-171.426zM171.426 339.714c92.943 0 168.288-75.345 168.288-168.288 0-92.943-75.345-168.288-168.288-168.289-92.943 0-168.288 75.345-168.289 168.289 0 92.943 75.345 168.288 168.289 168.288z" data-fill-palette-color="tertiary" fill="#ffffff" stroke="transparent"></path><ellipse rx="164.56874808852183" ry="164.56874808852183" cx="171.4257792588769" cy="171.4257792588769" fill="#ffffff" stroke="transparent" stroke-width="0" fill-opacity="1" data-fill-palette-color="tertiary"></ellipse></g><g transform="matrix(1,0,0,1,64.84655864529836,90.49398554876167)"><svg viewBox="0 0 213.15844122715708 161.86358742023046" height="161.86358742023046" width="213.15844122715708"><g><svg viewBox="0 0 213.15844122715708 161.86358742023046" height="161.86358742023046" width="213.15844122715708"><g><svg viewBox="0 0 213.15844122715708 161.86358742023046" height="161.86358742023046" width="213.15844122715708"><g transform="matrix(1,0,0,1,0,97.35883551977315)"><svg viewBox="0 0 213.15844122715708 64.50475190045731" height="64.50475190045731" width="213.15844122715708"><g id="textblocktransform"><svg viewBox="0 0 213.15844122715708 64.50475190045731" height="64.50475190045731" width="213.15844122715708" id="textblock"><g><svg viewBox="0 0 213.15844122715708 34.79078090674671" height="34.79078090674671" width="213.15844122715708"><g transform="matrix(1,0,0,1,0,0)"><svg width="213.15844122715708" viewBox="0.75 -32.95000076293945 205.24000549316406 33.5" height="34.79078090674671" data-palette-color="#ee3e38"><path d="M15.5 0.55Q8.55 0.55 4.65-3.7 0.75-7.95 0.75-15.55L0.75-15.55Q0.75-23.95 5.3-28.45 9.85-32.95 18.3-32.95L18.3-32.95Q20.2-32.95 22.55-32.65 24.9-32.35 26.6-32.05 28.3-31.75 28.8-31.65L28.8-31.65 29.2-30.65Q29.1-30.3 28.85-28.85 28.6-27.4 28.28-25.03 27.95-22.65 27.8-19.95L27.8-19.95 20.1-19.5Q20.1-19.75 20.15-20.5 20.2-21.25 20.2-22.35L20.2-22.35Q20.2-24.35 19.43-25.2 18.65-26.05 16.75-26.05L16.75-26.05Q14.95-26.05 13.98-25.25 13-24.45 12.58-22.58 12.15-20.7 12.15-17.35L12.15-17.35Q12.15-11.75 13.33-9.13 14.5-6.5 17-6.5L17-6.5Q18.9-6.5 19.8-7.8 20.7-9.1 20.95-12.3L20.95-12.3 28.6-12.8Q28.5-11.8 28.25-8.47 28-5.15 28-2.15L28-2.15 27.35-1.35Q26.9-1.2 25.28-0.75 23.65-0.3 21 0.13 18.35 0.55 15.5 0.55L15.5 0.55ZM43.45 0.45Q37.35 0.45 34.17-2.78 31-6 31-12.25L31-12.25Q31-18.9 34.42-22.28 37.85-25.65 44.55-25.65L44.55-25.65Q50.85-25.65 53.92-22.58 57-19.5 57-13.2L57-13.2Q57-6.55 53.52-3.05 50.05 0.45 43.45 0.45L43.45 0.45ZM44.2-4.95Q45.65-4.95 46.17-6.15 46.7-7.35 46.7-10.6L46.7-10.6Q46.7-14.3 46.45-16.25 46.2-18.2 45.57-19 44.95-19.8 43.75-19.8L43.75-19.8Q42.75-19.8 42.22-19.3 41.7-18.8 41.5-17.63 41.3-16.45 41.3-14.25L41.3-14.25Q41.3-10.55 41.55-8.58 41.8-6.6 42.4-5.78 43-4.95 44.2-4.95L44.2-4.95ZM92.8-3.85L93.09-3.5 92.75 0.1 88.09 0Q86.59 0 83.32 0.1 80.05 0.2 79.65 0.3L79.65 0.3 80.15-3.55Q81.3-3.65 81.77-4.08 82.25-4.5 82.25-5.45L82.25-5.45 82.25-13 81.65-13Q81.84-13.8 81.2-11.85 80.55-9.9 79.55-6.7 78.55-3.5 77.59 0L77.59 0 71.84 0.4Q70.8-3.4 69.82-6.68 68.84-9.95 68.22-11.9 67.59-13.85 67.84-13L67.84-13 67.25-13 67.2-5.05Q67.2-3.75 68.59-3.75L68.59-3.75 69.59-3.8 70-3.5 69.5 0.15Q68.7 0.15 66.77 0.08 64.84 0 63.3 0L63.3 0Q62.15 0 60.5 0.1 58.85 0.2 58.3 0.3L58.3 0.3 58.6-3.5Q59.8-3.6 60.35-4.17 60.9-4.75 60.95-6L60.95-6 61.15-8Q62.35-18.8 62.35-19.7L62.35-19.7Q62.35-20.5 62.25-20.75 62.15-21 61.77-21.08 61.4-21.15 59.9-21.35L59.9-21.35 59.55-21.7 60-25.4Q60.75-25.35 62.65-25.28 64.55-25.2 66.3-25.2L66.3-25.2Q68.4-25.2 70.4-25.25 72.4-25.3 73.15-25.35L73.15-25.35Q73.7-22.4 74.55-18.85 75.4-15.3 75.7-14.25L75.7-14.25 76.3-14.25Q76.59-15.3 77.59-18.8 78.59-22.3 79.3-25.2L79.3-25.2 84.3-25.15Q86.5-25.15 87.59-25.25L87.59-25.25 91.45-25.45 91.75-25.3 91.4-21.5Q89.7-21.45 89.22-21.1 88.75-20.75 88.75-19.55L88.75-19.55Q88.75-17.65 89.05-13.65 89.34-9.65 89.65-7.1L89.65-7.1Q89.75-5.25 90.17-4.53 90.59-3.8 91.55-3.8L91.55-3.8Q92-3.8 92.34-3.83 92.7-3.85 92.8-3.85L92.8-3.85ZM60.95-6L60.95-6ZM93.74 0.35L94.14-3.55Q95.64-3.75 96.22-4.5 96.79-5.25 96.79-6.85L96.79-6.85 96.79-19.35Q96.79-20.55 96.57-21 96.34-21.45 95.79-21.45L95.79-21.45 94.29-21.4 93.84-21.9 94.29-25.2 100.39-25.2Q102.44-25.2 104.82-25.3 107.19-25.4 108.14-25.45L108.14-25.45Q115.04-25.45 117.39-22.9 119.74-20.35 119.74-17.15L119.74-17.15Q119.74-14.7 118.29-12.55 116.84-10.4 114.42-9.13 111.99-7.85 109.24-7.85L109.24-7.85 105.64-7.85 105.64-6.3Q105.64-4.9 106.09-4.33 106.54-3.75 107.79-3.75L107.79-3.75 109.04-3.8 109.24-3.45 108.84 0.15Q107.99 0.15 105.77 0.08 103.54 0 101.69 0L101.69 0Q100.84 0 96.09 0.25L96.09 0.25 93.74 0.35ZM108.39-12.7Q109.49-13.1 109.99-14.1 110.49-15.1 110.49-16.85L110.49-16.85Q110.49-18.55 109.59-19.3 108.69-20.05 106.69-20.05L106.69-20.05Q106.34-20.05 106.22-19.88 106.09-19.7 106.04-19.15L106.04-19.15 105.74-13.05 108.39-12.7ZM131.29 0.2L130.94-0.15 131.19-3.75Q132.24-3.85 132.87-3.98 133.49-4.1 133.62-4.3 133.74-4.5 133.74-5.05L133.74-5.05 133.69-5.5 133.59-6.55Q132.44-6.6 130.54-6.6L130.54-6.6Q129.99-6.6 128.59-6.5L128.59-6.5 127.39-6.45 127.09-5.15 127.04-4.45Q127.04-4 127.19-3.9 127.34-3.8 128.14-3.8L128.14-3.8 129.04-3.8 129.44-3.35 129.09 0.15Q128.44 0.15 126.54 0.1 124.64 0.05 122.59 0.05L122.59 0.05 116.94 0.05 117.24-3.6Q118.64-4 119.19-5.55L119.19-5.55 125.59-25 137.64-25.65 138.29-25.1Q138.94-22.65 140.52-16.63 142.09-10.6 143.29-6.25L143.29-6.25Q143.64-4.95 144.17-4.35 144.69-3.75 145.54-3.65L145.54-3.65 145.84-3.2 145.49 0.1 139.49 0.05Q136.49 0.05 134.24 0.1 131.99 0.15 131.29 0.2L131.29 0.2ZM128.79-11.9L130.69-11.9Q131.89-11.9 132.64-11.95L132.64-11.95 131.44-18.15 130.49-18.15 128.79-11.9ZM166.94-14.25L166.74-19.8Q166.64-20.8 166.39-21.15 166.14-21.5 165.39-21.5L165.39-21.5 164.14-21.5 163.89-21.95 164.09-25.35Q164.89-25.35 167.04-25.28 169.19-25.2 171.34-25.2L171.34-25.2Q177.34-25.2 177.34-25.3L177.34-25.3 177.14-21.5Q175.84-21.3 175.34-20.78 174.84-20.25 174.79-19.05L174.79-19.05 174.24-0.2 165.59 0.25Q162.99-3.7 160.79-6.85 158.59-10 157.99-10.85L157.99-10.85 157.29-10.85 157.49-5.7Q157.54-4.5 157.86-4.08 158.19-3.65 159.14-3.65L159.14-3.65Q159.54-3.65 159.91-3.7 160.29-3.75 160.44-3.8L160.44-3.8 160.89-3.45 160.39 0.15Q159.59 0.15 157.56 0.08 155.54 0 153.74 0L153.74 0Q151.89 0 149.76 0.13 147.64 0.25 147.04 0.3L147.04 0.3 147.49-3.5Q148.69-3.65 149.21-4.23 149.74-4.8 149.79-5.95L149.79-5.95 150.29-18.9Q150.29-19.85 150.06-20.3 149.84-20.75 149.21-20.98 148.59-21.2 147.24-21.35L147.24-21.35 146.69-21.95 146.94-25.4Q147.49-25.35 149.44-25.28 151.39-25.2 153.44-25.2L153.44-25.2Q155.29-25.2 156.91-25.25 158.54-25.3 159.09-25.35L159.09-25.35Q161.14-21.85 163.36-18.53 165.59-15.2 166.24-14.25L166.24-14.25 166.94-14.25ZM183.09 0.35L183.39-3.55Q185.24-3.65 186.16-3.9 187.09-4.15 187.46-4.73 187.84-5.3 187.84-6.45L187.84-6.45 187.84-6.85Q187.84-7.65 187.59-8.38 187.34-9.1 186.69-10.2L186.69-10.2 182.14-18.05Q181.09-19.6 178.19-21.1L178.19-21.1 177.99-21.35 178.44-25.25 184.89-25.15Q186.04-25.15 188.81-25.28 191.59-25.4 192.54-25.45L192.54-25.45 192.89-24.95 192.44-21.45Q190.94-21.55 190.94-20.55L190.94-20.55Q190.94-20.3 191.36-19.33 191.79-18.35 191.94-18.05L191.94-18.05 192.99-15.6 193.59-15.6 194.89-19.3Q195.44-20.4 195.44-21L195.44-21Q195.44-21.3 195.11-21.43 194.79-21.55 193.99-21.5L193.99-21.5 193.84-21.75 194.19-25.1 200.99-25.15Q202.69-25.15 204.04-25.2 205.39-25.25 205.84-25.3L205.84-25.3 205.99-25 205.64-21.25Q204.39-20.5 203.14-19.15 201.89-17.8 201.14-16.4L201.14-16.4 197.44-9.3Q197.04-8.4 196.94-7.75 196.84-7.1 196.84-6.3L196.84-6.3Q196.84-4.95 197.29-4.4 197.74-3.85 198.94-3.85L198.94-3.85Q199.74-3.85 200.31-3.9 200.89-3.95 201.09-4L201.09-4 201.29-3.75 200.94 0.25Q199.89 0.2 197.11 0.1 194.34 0 191.89 0L191.89 0Q190.19 0 187.14 0.15 184.09 0.3 183.09 0.35L183.09 0.35Z" opacity="1" transform="matrix(1,0,0,1,0,0)" fill="#ee3e38" class="undefined-text-0" data-fill-palette-color="quaternary" id="text-0"></path></svg></g></svg></g><g transform="matrix(1,0,0,1,0,43.00404930008785)"><svg viewBox="0 0 213.15844122715708 21.50070260036947" height="21.50070260036947" width="213.15844122715708"><g transform="matrix(1,0,0,1,0,0)"><svg width="213.15844122715708" viewBox="2.75 -34.849998474121094 444.6400146484375 44.849998474121094" height="21.50070260036947" data-palette-color="#ee3e38"><path d="M17.4 0.8Q13.15 0.8 9.83-1.48 6.5-3.75 4.63-7.8 2.75-11.85 2.75-17L2.75-17Q2.75-22.15 4.63-26.23 6.5-30.3 9.83-32.58 13.15-34.85 17.4-34.85L17.4-34.85Q21.65-34.85 24.98-32.58 28.3-30.3 30.18-26.23 32.05-22.15 32.05-16.95L32.05-16.95Q32.05-11.8 30.18-7.78 28.3-3.75 24.98-1.48 21.65 0.8 17.4 0.8L17.4 0.8ZM17.4-2.65Q20.5-2.65 22.98-4.48 25.45-6.3 26.85-9.58 28.25-12.85 28.25-17L28.25-17Q28.25-21.15 26.85-24.45 25.45-27.75 22.98-29.6 20.5-31.45 17.4-31.45L17.4-31.45Q14.3-31.45 11.83-29.6 9.35-27.75 7.95-24.45 6.55-21.15 6.55-17L6.55-17Q6.55-12.85 7.95-9.58 9.35-6.3 11.83-4.48 14.3-2.65 17.4-2.65L17.4-2.65ZM65.19-24.2Q66.39-24.2 67.49-23.85L67.49-23.85 67.49-20.75Q66.44-21.25 65.19-21.25L65.19-21.25Q63.04-21.25 61.19-20.05 59.34-18.85 58.22-16.57 57.09-14.3 57.09-11.2L57.09-11.2 57.09 0 53.69 0 53.69-23.4 57.09-23.4 57.09-18.7Q58.44-21.3 60.52-22.75 62.59-24.2 65.19-24.2L65.19-24.2ZM104.74-23.4L108.14-23.4 108.14-0.9Q108.14 2.25 106.84 4.73 105.54 7.2 103.19 8.6 100.84 10 97.84 10L97.84 10 88.14 10 88.14 6.9 97.84 6.9Q100.89 6.9 102.81 4.7 104.74 2.5 104.74-0.9L104.74-0.9 104.74-3.45Q103.29-1.45 101.19-0.33 99.09 0.8 96.59 0.8L96.59 0.8Q93.24 0.8 90.59-0.8 87.94-2.4 86.44-5.25 84.94-8.1 84.94-11.75L84.94-11.75Q84.94-15.35 86.41-18.18 87.89-21 90.51-22.6 93.14-24.2 96.49-24.2L96.49-24.2Q99.04-24.2 101.16-23.08 103.29-21.95 104.74-19.9L104.74-19.9 104.74-23.4ZM96.49-2.3Q98.89-2.3 100.76-3.5 102.64-4.7 103.69-6.85 104.74-9 104.74-11.7L104.74-11.7Q104.74-14.4 103.69-16.55 102.64-18.7 100.76-19.9 98.89-21.1 96.49-21.1L96.49-21.1Q94.14-21.1 92.29-19.9 90.44-18.7 89.39-16.57 88.34-14.45 88.34-11.75L88.34-11.75Q88.34-9 89.39-6.85 90.44-4.7 92.29-3.5 94.14-2.3 96.49-2.3L96.49-2.3ZM148.53-23.4L151.93-23.4 151.93 0 148.53 0 148.53-3.45Q147.08-1.45 144.98-0.33 142.88 0.8 140.38 0.8L140.38 0.8Q137.03 0.8 134.38-0.8 131.73-2.4 130.23-5.25 128.73-8.1 128.73-11.75L128.73-11.75Q128.73-15.35 130.21-18.18 131.68-21 134.31-22.6 136.93-24.2 140.28-24.2L140.28-24.2Q142.83-24.2 144.96-23.08 147.08-21.95 148.53-19.9L148.53-19.9 148.53-23.4ZM140.28-2.3Q142.68-2.3 144.56-3.5 146.43-4.7 147.48-6.85 148.53-9 148.53-11.7L148.53-11.7Q148.53-14.4 147.48-16.55 146.43-18.7 144.56-19.9 142.68-21.1 140.28-21.1L140.28-21.1Q137.93-21.1 136.08-19.9 134.23-18.7 133.18-16.57 132.13-14.45 132.13-11.75L132.13-11.75Q132.13-9 133.18-6.85 134.23-4.7 136.08-3.5 137.93-2.3 140.28-2.3L140.28-2.3ZM185.13-24.2Q187.58-24.2 189.65-23.2 191.73-22.2 192.95-20.25 194.18-18.3 194.18-15.65L194.18-15.65 194.18 0 190.78 0 190.78-14.15Q190.78-21.1 184.58-21.1L184.58-21.1Q180.98-21.1 179.18-18.55 177.38-16 177.38-11.7L177.38-11.7 177.38 0 173.98 0 173.98-23.4 177.38-23.4 177.38-19.5Q178.58-21.75 180.55-22.98 182.53-24.2 185.13-24.2L185.13-24.2ZM221.82 0L218.42 0 218.42-23.4 221.82-23.4 221.82 0ZM220.12-27.95Q218.97-27.95 218.2-28.75 217.42-29.55 217.42-30.7L217.42-30.7Q217.42-31.8 218.2-32.58 218.97-33.35 220.12-33.35L220.12-33.35Q221.22-33.35 222.02-32.58 222.82-31.8 222.82-30.65L222.82-30.65Q222.82-29.55 222.02-28.75 221.22-27.95 220.12-27.95L220.12-27.95ZM244.42-23.4L261.72-23.4 261.72-20.3 248.32-3.1 261.72-3.1 261.72 0 244.42 0 244.42-3.1 257.82-20.3 244.42-20.3 244.42-23.4ZM300.81-23.4L304.21-23.4 304.21 0 300.81 0 300.81-3.45Q299.36-1.45 297.26-0.33 295.16 0.8 292.66 0.8L292.66 0.8Q289.31 0.8 286.66-0.8 284.01-2.4 282.51-5.25 281.01-8.1 281.01-11.75L281.01-11.75Q281.01-15.35 282.49-18.18 283.96-21 286.59-22.6 289.21-24.2 292.56-24.2L292.56-24.2Q295.11-24.2 297.24-23.08 299.36-21.95 300.81-19.9L300.81-19.9 300.81-23.4ZM292.56-2.3Q294.96-2.3 296.84-3.5 298.71-4.7 299.76-6.85 300.81-9 300.81-11.7L300.81-11.7Q300.81-14.4 299.76-16.55 298.71-18.7 296.84-19.9 294.96-21.1 292.56-21.1L292.56-21.1Q290.21-21.1 288.36-19.9 286.51-18.7 285.46-16.57 284.41-14.45 284.41-11.75L284.41-11.75Q284.41-9 285.46-6.85 286.51-4.7 288.36-3.5 290.21-2.3 292.56-2.3L292.56-2.3ZM330.91 0L327.51 0 327.51-20.3 323.51-20.3 323.51-23.4 327.51-23.4 327.51-31.15 330.91-31.15 330.91-23.4 336.31-23.4 336.31-20.3 330.91-20.3 330.91 0ZM361 0L357.6 0 357.6-23.4 361-23.4 361 0ZM359.3-27.95Q358.15-27.95 357.38-28.75 356.6-29.55 356.6-30.7L356.6-30.7Q356.6-31.8 357.38-32.58 358.15-33.35 359.3-33.35L359.3-33.35Q360.4-33.35 361.2-32.58 362-31.8 362-30.65L362-30.65Q362-29.55 361.2-28.75 360.4-27.95 359.3-27.95L359.3-27.95ZM395.1 0.8Q391.75 0.8 389.1-0.8 386.45-2.4 384.95-5.28 383.45-8.15 383.45-11.75L383.45-11.75Q383.45-15.35 384.92-18.18 386.4-21 389.02-22.6 391.65-24.2 395-24.2L395-24.2Q398.35-24.2 401-22.6 403.65-21 405.15-18.15 406.65-15.3 406.65-11.7L406.65-11.7Q406.65-8.1 405.17-5.25 403.7-2.4 401.07-0.8 398.45 0.8 395.1 0.8L395.1 0.8ZM395-2.3Q397.4-2.3 399.27-3.5 401.15-4.7 402.2-6.85 403.25-9 403.25-11.7L403.25-11.7Q403.25-14.4 402.2-16.55 401.15-18.7 399.27-19.9 397.4-21.1 395-21.1L395-21.1Q392.65-21.1 390.8-19.9 388.95-18.7 387.9-16.57 386.85-14.45 386.85-11.75L386.85-11.75Q386.85-9 387.9-6.85 388.95-4.7 390.8-3.5 392.65-2.3 395-2.3L395-2.3ZM438.34-24.2Q440.79-24.2 442.87-23.2 444.94-22.2 446.17-20.25 447.39-18.3 447.39-15.65L447.39-15.65 447.39 0 443.99 0 443.99-14.15Q443.99-21.1 437.79-21.1L437.79-21.1Q434.19-21.1 432.39-18.55 430.59-16 430.59-11.7L430.59-11.7 430.59 0 427.19 0 427.19-23.4 430.59-23.4 430.59-19.5Q431.79-21.75 433.77-22.98 435.74-24.2 438.34-24.2L438.34-24.2Z" opacity="1" transform="matrix(1,0,0,1,0,0)" fill="#ee3e38" class="undefined-text-1" data-fill-palette-color="quaternary" id="text-1"></path></svg></g></svg></g></svg></g></svg></g><g transform="matrix(1,0,0,1,68.09981816466552,0)"><svg viewBox="0 0 76.95880489782603 89.14556712643201" height="89.14556712643201" width="76.95880489782603"><g><svg xmlns="http://www.w3.org/2000/svg" xmlns:xlink="http://www.w3.org/1999/xlink" version="1.1" x="0" y="0" viewBox="9.63800048828125 3.246999979019165 80.7239990234375 93.50699615478516" enable-background="new 0 0 100 100" xml:space="preserve" height="89.14556712643201" width="76.95880489782603" class="icon-icon-0" data-fill-palette-color="quaternary" id="icon-0"><g fill="#ee3e38" data-fill-palette-color="quaternary"><g fill="#ee3e38" data-fill-palette-color="quaternary"><polygon points="36.703,11.011 9.638,26.636 9.638,38.757 36.703,23.131 63.767,38.757 63.767,26.636   " fill="#ee3e38" data-fill-palette-color="quaternary"></polygon></g><g fill="#ee3e38" data-fill-palette-color="quaternary"><polygon points="63.298,89.092 36.233,73.467 36.233,61.348 63.298,76.973 90.362,61.348 90.362,73.467   " fill="#ee3e38" data-fill-palette-color="quaternary"></polygon></g><g fill="#ee3e38" data-fill-palette-color="quaternary"><polygon points="9.638,42.012 36.703,26.386 47.198,32.446 20.134,48.072 20.134,79.324 9.638,73.264   " fill="#ee3e38" data-fill-palette-color="quaternary"></polygon></g><g fill="#ee3e38" data-fill-palette-color="quaternary"><polygon points="77.083,18.872 50.018,3.247 39.522,9.307 66.586,24.932 66.586,56.184 77.083,50.124   " fill="#ee3e38" data-fill-palette-color="quaternary"></polygon></g><g fill="#ee3e38" data-fill-palette-color="quaternary"><polygon points="23.01,81.127 23.011,49.876 33.507,43.816 33.507,75.068 60.571,90.693 50.075,96.754   " fill="#ee3e38" data-fill-palette-color="quaternary"></polygon></g><g fill="#ee3e38" data-fill-palette-color="quaternary"><polygon points="90.362,58.092 90.362,26.84 79.866,20.78 79.866,52.031 52.802,67.658 63.298,73.719   " fill="#ee3e38" data-fill-palette-color="quaternary"></polygon></g></g></svg></g></svg></g><g></g></svg></g></svg></g></svg></g></svg></g><defs></defs></svg><rect width="342.8515585177538" height="342.8515585177538" fill="none" stroke="none" visibility="hidden"></rect></g></svg></g></svg>